<svg xmlns:svg="http://www.w3.org/2000/svg" xmlns="http://www.w3.org/2000/svg" version="1.1" viewBox="0 0 265.67249 26.501499" xml:space="preserve">
  <g transform="matrix(1.25,0,0,-1.25,0,26.5015)">
    <path d="M0 4.28984 0 16.925c0 1.1078 0.384766 2.048 1.15469 2.8211 0.76953 0.7719 1.70234 1.159 2.79687 1.159l12.57774 0c1.1035 0 2.043-0.3871 2.8176-1.159 0.7742-0.7731 1.1621-1.7133 1.1621-2.8211l0-1.6051-3.7418 0 0 1.618c0 0.1312-0.0656 0.1973-0.1957 0.1973l-12.63439 0c-0.13047 0-0.19531-0.0653-0.19531-0.1954l0-12.64996c0-0.1289 0.06484-0.2 0.19531-0.20898l12.63439 0c0.1301 0 0.1957 0.07109 0.1957 0.21016l0 3.89492-4.7188 0 8.4606 3.76916 0-7.66526c0-1.10703-0.3899-2.0457-1.1692-2.81875C18.5605 0.698828 17.6234 0.312109 16.5293 0.312109l-12.57774 0c-1.1039 0-2.03828 0.386719-2.80351 1.158981C0.382813 2.24414 0 3.18281 0 4.28984M23.741 0.312109l0 20.592991 18.9309 0 0-3.7699-15.1891 0 0-4.6481 12.2438 0 0-3.76991-12.2438 0 0-4.63633 15.1891 0 0-3.768751-18.9309 0"
    fill="none" />
    <path d="m23.741 0.312109 0 20.592991 18.9309 0 0-3.7699-15.1891 0 0-4.6481 12.2438 0 0-3.76991-12.2438 0 0-4.63633 15.1891 0 0-3.768751-18.9309 0" fill="none" />
    <path d="m49.4504 4.28984c0-0.1289 0.0652-0.2 0.1957-0.20898l12.6477 0c0.1121 0 0.1726 0.07109 0.1824 0.20898l0 12.64996c0 0.1301-0.0606 0.1954-0.1824 0.1954l-12.6477 0c-0.1305 0-0.1957-0.0653-0.1957-0.1954l0-12.64996zm-3.7414 0 0 12.63516c0 1.1078 0.3824 2.048 1.148 2.8211 0.7645 0.7719 1.6993 1.159 2.8032 1.159l12.5918 0c1.0847 0 2.0175-0.3871 2.7964-1.159 0.7793-0.7731 1.1696-1.7133 1.1696-2.8211l0-12.63516c0-1.10703-0.3903-2.0457-1.1696-2.81875C64.2695 0.698828 63.3367 0.312109 62.252 0.312109l-12.5918 0c-1.1039 0-2.0387 0.386719-2.8032 1.158981-0.7656 0.77305-1.148 1.71172-1.148 2.81875"
    fill="none" />
    <path d="m69.4512 0.312109 0 20.592991 4.1187 0 7.491-11.23713 7.4817 11.23713 4.0418 0 0-20.592991-3.7414 0 0 15.091791-7.795-11.58671-7.855 11.62261 0-15.127691-3.7418 0" fill="none" />
    <path d="m143.339 4.31797-10.869 6.24493 10.869 6.2851 0 4.3532-15.449-8.9301 0-3.38399L143.339 0l0 4.31797" fill="none" />
    <path d="m124.149 0.312109 3.74102 0 0 20.593-3.74102 0 0-20.593z" fill="none" />
    <path d="m146.456 0.312109 0 20.592991 18.93 0 0-3.7699-15.189 0 0-4.6481 12.243 0 0-3.76991-12.243 0 0-4.63633 15.189 0 0-3.768751-18.93 0" fill="none" />
    <path d="m187.778 8.54688c0.776 0.78203 1.164 1.71602 1.164 2.80432l0 5.5359c0 1.0891-0.39 2.0231-1.169 2.8039-0.779 0.7809-1.721 1.1719-2.824 1.1719l-16.516 0 0-20.550791 3.742 0 0 16.584791c0 0.1312 0.066 0.1961 0.196 0.1961l12.62 0c0.139 0 0.209-0.0649 0.209-0.1961l0-5.5418c-0.009-0.1403-0.079-0.209-0.209-0.209l-8.612 0 8.458-10.833991 4.105 0 0 0.976951-5.068 6.08711 1.093 0c1.099 0 2.035 0.39063 2.811 1.17071"
    fill="none" />
    <path d="m192.028 4.28984 0 1.56524 3.742 0 0-1.56524c0-0.1289 0.065-0.2 0.195-0.20898l12.649 0c0.112 0 0.172 0.07109 0.181 0.20898l0 4.23125c0 0.13086-0.06 0.1961-0.181 0.1961l-12.649 0c-1.095 0-2.026 0.38476-2.79 1.15781-0.764 0.773-1.147 1.7129-1.147 2.8211l0 4.2289c0 1.1078 0.385 2.048 1.154 2.8211 0.77 0.7719 1.706 1.159 2.809 1.159l12.584 0c1.084 0 2.015-0.3871 2.794-1.159 0.778-0.7731 1.169-1.7133 1.169-2.8211l0-1.577-3.743 0 0 1.5899c0 0.1312-0.06 0.1973-0.181 0.1973l-12.649 0c-0.13 0-0.195-0.0653-0.195-0.1961l0-4.243c0-0.1313 0.065-0.2 0.195-0.209l12.649 0c1.073 0 1.996-0.3851 2.766-1.1531 0.772-0.768 1.158-1.70587 1.158-2.81291l0-4.23125c0-1.10703-0.391-2.0457-1.169-2.81875-0.779-0.772262-1.71-1.158981-2.794-1.158981l-12.584 0c-1.103 0-2.039 0.386719-2.809 1.158981-0.769 0.77305-1.154 1.71172-1.154 2.81875"
    fill="none" />
    <path d="m121.775 0.312109-11.904 20.592991-3.383 0-11.8462-20.592991 4.3211 0 9.2011 16.012891 5.122-8.85898-7.175-2.91719 8.861 0 2.45-4.236721 4.353 0" fill="none" />
  </g>
</svg>
